<?xml version="1.0" encoding="UTF-8" standalone="no"?>
<!-- Created with Inkscape (http://www.inkscape.org/) -->

<svg
   version="1.1"
   id="svg1"
   width="201.47231"
   height="282.15793"
   viewBox="0 0 201.47231 282.15793"
   xml:space="preserve"
   xmlns="http://www.w3.org/2000/svg"
   xmlns:svg="http://www.w3.org/2000/svg"><defs
     id="defs1" /><g
     id="g1"
     transform="translate(-51.817779,-389.34042)"><path
       style="fill:#064171;stroke:none"
       d="m 51.817779,455.51751 c 11.486,-8.15845 20.08996,-20.15064 31.99996,-28.25385 23.987341,-16.32025 56.039441,-19.5777 84.000021,-13.32098 40.0458,8.96106 66.68402,63.6604 26,90.57483 v 2 c 46.78722,28.76928 24.58727,95.47546 -14,121 9.47165,20.41223 -16.94455,26.76696 -33,32 v 1 c 48.69039,-0.005 94.04782,-34.75116 104.19599,-83 5.73944,-27.28784 1.87933,-62.01508 -26.19599,-76 37.65168,-30.74658 29.33576,-89.27289 -17,-105.90973 -55.4888,-19.92322 -127.115821,9.70099 -155.999981,59.90973 m 41.99996,-22 c -5.4051,36.73645 -20.4679,74.18994 -30.42436,110 -3.5935,12.92486 -9.4082,26.61157 -10.5756,40 l 13.5857,-1.02698 8.41886,-7.4939 23.9676,-8.89807 2.027801,-9.58105 h -9.000001 l 9.000001,-37 c 13.14166,0 41.83981,-5.1706 49.31175,9.0401 3.12359,5.94067 1.68827,14.45501 1.68827,20.9599 10.55442,0.8341 16.1402,2.79132 16,14 10.67324,-0.49597 13.83806,-9.72779 16.10186,-19 4.27696,-17.51789 0.15635,-32.78284 -18.10186,-39 7.7876,-4.43286 15.75699,-7.38477 21.21065,-15.0008 12.95731,-18.09491 7.96922,-44.92205 -13.21065,-53.54553 -22.72709,-9.25348 -55.76088,-3.45367 -80.000021,-3.45367 m 16.000001,59 c 1.13773,-7.73273 3.36332,-25.69013 8.85418,-31.39661 2.34274,-2.43475 7.10226,-1.60321 10.14582,-1.60339 7.72351,-4.9e-4 22.05536,-2.18213 27.25772,5.13348 9.07065,12.75519 -6.25726,26.80383 -18.25772,27.77313 -9.22416,0.74506 -18.74569,0.0934 -28,0.0934 m 19.99995,71 c -4.69877,-2.19379 -9.8076,-6.77466 -14.99537,-7.47303 -3.92199,-0.52795 -6.78531,2.758 -4.38195,6.29249 3.58384,5.2705 13.85025,6.84405 15.58951,13.27392 1.88465,6.96735 -4.05627,18.3526 -4.21219,25.90662 -5.27919,-2.19788 -15.80352,-5.43897 -18.97225,-10.39044 -2.3161,-3.61921 0.2046,-10.83277 -3.627301,-13.5625 -6.3629,-4.53278 -7.1912,6.58166 -6.4005,9.95294 -2.4393,-0.8252 -24.35216,-9.06079 -18.7122,1.57098 2.0307,3.82794 11.8179,5.16187 15.7122,6.42902 -3.6977,2.1582 -9.3217,3.69055 -12.2569,6.81482 -2.9365,3.12548 -0.8614,7.18103 3.2762,6.79785 6.5288,-0.60474 11.5792,-7.31995 17.9807,-7.46533 5.003351,-0.11353 11.765021,5.37848 16.000051,7.85266 -7.48268,3.11529 -15.991851,10.70788 -24.000051,11.65588 -6.4141,0.75928 -12.2735,-6.77893 -18.8518,-3.90973 -9.59476,4.18476 4.0493,9.69226 7.8518,10.25385 -4.3481,4.39447 -16.26666,6.29138 -18.33796,12.19366 -3.0242,8.61756 19.39446,-2.38861 22.33796,-3.19366 l -2,13 c 11.315,-0.36817 8.282,-10.73474 13.7269,-17.67127 4.608201,-5.8706 15.525251,-9.51935 22.273151,-12.32873 -1.82933,5.78479 -1.20852,13.88574 -4.60262,18.95984 -4.27883,6.39685 -12.94663,8.07458 -18.074931,13.55712 -7.3403,7.84754 6.622401,3.74653 9.676011,2.07099 2.30479,-1.26471 4.63968,-2.43439 7.00154,-3.58795 -0.20535,4.78265 -4.25962,15.38324 -0.97299,19.38116 6.14417,7.47394 9.84772,-13.50799 9.97299,-16.38116 3.69898,1.35425 8.00988,5.29089 11.98072,5.26391 3.63748,-0.0248 5.46666,-3.94281 3.39659,-6.79632 -2.79189,-3.84851 -10.11989,-4.91681 -11.48764,-9.67743 -1.99654,-6.94922 2.95901,-17.45831 3.11033,-24.79016 5.43528,2.34509 15.78388,6.62304 19.35726,11.39044 3.34086,4.45721 -1.62235,10.60846 0.28549,15.38037 4.32942,10.82867 9.96094,-7.70203 10.35725,-10.77081 2.64223,1.10003 16.14795,9.62878 17.07871,3.79626 0.66267,-4.15259 -9.38297,-9.33587 -12.07871,-11.79626 3.92806,-1.07215 9.43689,-2.26013 12.56173,-4.99463 2.47723,-2.16773 2.07467,-6.04822 -1.62114,-6.35877 -7.00084,-0.58819 -13.49038,7.04767 -20.51621,6.1366 -6.02647,-0.78149 -12.04565,-7.11877 -17.42438,-9.7832 6.48717,-4.27826 17.06304,-11.77356 25,-12.2461 4.99594,-0.29748 10.70885,7.51294 15.54708,4.20288 5.3284,-3.64538 -3.86666,-8.68042 -6.54708,-9.95678 v -1 c 5.06865,-2.11023 12.41448,-4.401 16.56559,-7.99384 1.76277,-1.52569 3.1081,-5.2027 0.11265,-6.29785 -5.23472,-1.91382 -15.83247,6.27423 -20.67824,8.29169 0.94088,-2.44251 6.40473,-15.12696 -0.89044,-13.10956 -5.44563,1.50592 -6.64609,11.99512 -9.75848,16.00458 -4.8795,6.28601 -16.15035,10.10705 -23.35108,13.10498 1.53672,-8.15607 1.5822,-20.43128 7.27855,-26.89502 3.70594,-4.2052 18.603,-6.8086 19.2554,-12.17981 1.10764,-9.11926 -17.94044,1.56109 -20.53395,3.07483 0.34714,-4.39862 5.52632,-21.17908 1.41126,-23.86341 -5.87155,-3.8302 -8.73293,18.5752 -9.41126,21.86341"
       id="path154" /><path
       style="fill:#0293c8;fill-opacity:1;stroke-width:0.609957"
       d="m 112.13798,670.7941 c -2.51291,-1.53207 -2.88721,-5.35449 -1.32475,-13.52857 1.29925,-6.79706 1.28794,-6.71587 0.93517,-6.71587 -0.17218,0 -2.12659,0.90844 -4.34314,2.01875 -5.69079,2.85062 -11.323631,4.48332 -13.301621,3.85553 -2.79722,-0.8878 1.30536,-5.2537 9.498491,-10.10814 9.94674,-5.89347 11.15684,-7.67453 12.92568,-19.02448 0.51536,-3.3068 1.07018,-6.40396 1.23295,-6.88258 0.22301,-0.65573 0.19424,-0.87021 -0.1167,-0.87021 -0.66276,0 -9.30783,3.60385 -12.5566,5.23444 -8.259011,4.14528 -10.579071,6.70874 -13.121411,14.49799 -1.63631,5.01342 -2.45541,6.631 -4.07991,8.05731 -1.1063,0.97135 -3.7044,1.95563 -5.1622,1.95563 -0.6586,0 -0.736,-0.11489 -0.5863,-0.87021 0.4485,-2.26371 1.8215,-11.84785 1.7128,-11.9565 -0.068,-0.0676 -2.9645,1.00053 -6.4376,2.3737 -6.90576,2.73047 -10.81526,3.88089 -13.31956,3.91951 -1.9101,0.0295 -2.6464,-0.45701 -2.6464,-1.7484 0,-2.73361 2.5376,-4.84843 10.57856,-8.81602 3.493,-1.72355 6.6822,-3.41916 7.0871,-3.76802 0.7571,-0.65242 0.6921,-1.28486 -0.1321,-1.28486 -0.9867,0 -5.5897,-2.00081 -7.4295,-3.22936 -2.34836,-1.56821 -3.17396,-2.96544 -2.49816,-4.22813 0.5412,-1.01118 2.50406,-2.18807 4.46496,-2.67701 2.0367,-0.50784 4.3367,0.0142 8.5769,1.94685 3.4559,1.57514 6.3427,2.49173 7.8477,2.49173 1.56947,0 5.64551,-1.23129 8.27286,-2.49906 1.44565,-0.69757 4.906811,-2.64364 7.691491,-4.3246 2.78467,-1.68096 5.95311,-3.48113 7.04097,-4.00037 1.08787,-0.51925 1.9032,-1.06502 1.81185,-1.21282 -0.27728,-0.44866 -7.58398,-4.98744 -9.90063,-6.15008 -5.311761,-2.66579 -8.114401,-2.32835 -15.058341,1.81304 -4.6329,2.7631 -7.0977,3.78486 -9.2529,3.83567 -2.7125,0.0639 -4.5171,-1.7883 -4.0733,-4.18091 0.3828,-2.06409 2.647,-3.84698 8.3948,-6.61029 2.7815,-1.33725 5.0569,-2.5091 5.0564,-2.60413 -5e-4,-0.095 -2.0297,-0.69462 -4.5093,-1.33246 -7.608,-1.95703 -10.0515,-3.17348 -11.3032,-5.62691 -2.6156,-5.12702 2.0816,-5.99188 13.5983,-2.50373 2.3496,0.71163 4.48558,1.35575 4.74664,1.43137 0.39871,0.11549 0.47561,-0.3587 0.48058,-2.96345 0.007,-3.59383 0.46257,-5.41963 1.69775,-6.80204 1.09419,-1.2246 2.43137,-1.27139 4.134,-0.14465 1.749161,1.15754 2.246041,2.52534 2.716341,7.4774 0.22619,2.38171 0.62639,4.84527 0.88934,5.47459 0.67595,1.61778 2.97177,3.6987 5.91402,5.36044 2.57872,1.45642 13.1459,5.8673 13.41402,5.59918 0.0816,-0.0816 0.30562,-1.14105 0.49781,-2.35434 0.19219,-1.21327 1.12422,-5.12512 2.07118,-8.69298 1.93199,-7.27919 2.50865,-10.72778 2.19046,-13.09962 -0.57472,-4.28413 -2.07709,-5.85216 -9.98854,-10.42504 -3.20715,-1.85375 -5.78265,-4.07856 -6.30162,-5.44355 -1.09093,-2.86938 0.65272,-5.20732 3.88365,-5.20732 2.24412,0 4.8551,1.09624 10.18674,4.27696 2.76686,1.65064 5.19437,3.00117 5.39447,3.00117 0.21911,0 0.64621,-1.63778 1.07383,-4.11768 1.51637,-8.79406 3.37023,-14.63785 5.33282,-16.8102 0.60766,-0.67261 1.38243,-1.22293 1.7217,-1.22293 3.4394,0 3.68748,5.204 0.88643,18.59477 -0.51923,2.48225 -0.94405,4.78162 -0.94405,5.1097 0,0.5059 0.68577,0.25072 4.51422,-1.67978 9.58798,-4.83475 15.27801,-5.65351 15.90915,-2.28924 0.55544,2.96075 -1.97042,5.01108 -10.77195,8.74392 -4.53924,1.92516 -6.48264,2.95876 -7.82722,4.16294 -2.63799,2.36252 -4.76995,7.54729 -5.93675,14.43772 -0.95469,5.63787 -1.90829,12.82415 -1.72592,13.00652 0.0894,0.0893 2.04474,-0.60107 4.34533,-1.53424 9.03537,-3.66496 14.59126,-6.75008 17.63202,-9.79085 1.67928,-1.67927 2.82826,-3.74442 4.51902,-8.12236 2.14025,-5.54181 3.46391,-7.68526 5.47621,-8.8678 1.61321,-0.94802 3.07448,-0.9805 3.9668,-0.0882 1.02854,1.02854 0.70972,4.20862 -0.89228,8.90033 -0.69827,2.04499 -1.18126,3.71817 -1.07331,3.71817 0.10796,0 1.97396,-1.00026 4.14668,-2.2228 5.73085,-3.22463 9.14765,-4.93391 11.3372,-5.67152 5.14016,-1.73159 8.14162,0.329 6.00824,4.12485 -1.24826,2.22096 -5.1107,4.48756 -12.92039,7.58208 -5.61094,2.22329 -5.767,2.47764 -2.62913,4.28503 2.57365,1.4824 5.66499,4.38018 5.96413,5.5907 0.2651,1.0728 -0.42498,2.22856 -1.84911,3.09691 -1.9789,1.20661 -4.06207,0.70184 -8.99638,-2.17987 -1.17751,-0.68769 -2.89972,-1.49852 -3.82713,-1.80184 -1.59288,-0.52098 -1.83666,-0.52194 -4.40527,-0.0172 -3.20713,0.63015 -7.04943,2.15848 -10.9963,4.37395 -3.37689,1.89553 -11.85148,7.28616 -11.86032,7.54428 -0.0146,0.42531 12.16844,8.33936 13.93814,9.05417 4.24996,1.71664 7.12607,1.33466 13.54161,-1.79849 6.21151,-3.0335 8.83,-3.78072 11.10348,-3.16854 0.69238,0.18644 1.47768,0.65137 1.74511,1.03319 0.62324,0.8898 0.62166,2.53804 -0.004,3.74715 -0.93088,1.80012 -5.1372,3.91256 -10.66468,5.35587 -1.52286,0.39765 -2.76885,0.82126 -2.76885,0.94137 0,0.1201 1.38838,1.1889 3.08529,2.37509 6.47315,4.52496 8.93944,7.02182 8.93944,9.05024 0,1.11993 -1.3149,2.1838 -2.69909,2.1838 -1.74851,0 -4.98626,-1.18348 -9.54392,-3.48853 -2.4005,-1.21407 -4.45026,-2.20739 -4.55501,-2.20739 -0.10475,0 -0.50322,1.14126 -0.8855,2.53613 -0.8603,3.13917 -2.52682,7.13445 -3.81012,9.1343 -2.09833,3.26997 -4.07239,2.89523 -5.61702,-1.06629 -0.55097,-1.41307 -0.49316,-3.21542 0.21325,-6.64864 0.78102,-3.79581 0.79259,-5.94873 0.0408,-7.59456 -1.09241,-2.39159 -4.93358,-5.29213 -11.09554,-8.37845 -2.63983,-1.3222 -8.7848,-4.12094 -9.04803,-4.12094 -0.0318,0 -0.14425,0.92482 -0.24981,2.05515 -0.10555,1.13033 -0.76042,4.51423 -1.45527,7.51979 -2.26503,9.79741 -2.47779,13.5832 -0.93233,16.58949 0.80397,1.56392 2.15292,2.60179 7.73891,5.95424 2.5899,1.55434 3.92585,3.24493 3.92585,4.96801 0,3.668 -3.4049,5.14579 -7.51778,3.26285 -0.97275,-0.44534 -2.98995,-1.50247 -4.48266,-2.34919 -4.20096,-2.38291 -3.91311,-2.45836 -4.54262,1.19066 -1.12223,6.50519 -3.27461,12.29673 -5.19741,13.98496 -1.26085,1.10704 -1.50737,1.13226 -2.88114,0.29469 z"
       id="path155" /></g></svg>
