<?xml version="1.0" encoding="UTF-8" standalone="no"?>
<!-- Created with Inkscape (http://www.inkscape.org/) -->

<svg
   width="35.225693mm"
   height="42.240894mm"
   viewBox="0 0 35.225693 42.240894"
   version="1.1"
   id="svg1"
   xml:space="preserve"
   xmlns:inkscape="http://www.inkscape.org/namespaces/inkscape"
   xmlns:sodipodi="http://sodipodi.sourceforge.net/DTD/sodipodi-0.dtd"
   xmlns="http://www.w3.org/2000/svg"
   xmlns:svg="http://www.w3.org/2000/svg"><sodipodi:namedview
     id="namedview1"
     pagecolor="#ffffff"
     bordercolor="#000000"
     borderopacity="0.25"
     inkscape:showpageshadow="2"
     inkscape:pageopacity="0.0"
     inkscape:pagecheckerboard="0"
     inkscape:deskcolor="#d1d1d1"
     inkscape:document-units="mm"><inkscape:page
       x="0"
       y="0"
       width="35.225693"
       height="42.240894"
       id="page2"
       margin="0"
       bleed="0" /></sodipodi:namedview><defs
     id="defs1" /><g
     inkscape:label="Layer 1"
     inkscape:groupmode="layer"
     id="layer1"
     transform="translate(-696.89385,-29.865308)"><path
       d="m 697.98836,42.492368 h 0.26459 c 3.83523,-5.033082 11.18797,-6.41139 17.19791,-5.630769 3.41125,0.443077 6.37535,1.382636 7.84155,4.837019 2.31885,5.463208 -2.26649,8.435903 -3.12886,13.229167 -0.22959,1.276133 0.53708,2.761564 0.88072,3.968749 0.83212,2.923255 1.6768,5.85255 2.65359,8.73125 0.37175,1.095605 0.75835,3.24247 1.72755,3.961402 1.31412,0.974771 5.08683,0.271931 6.6942,0.271931 -3.20485,-5.32377 -4.39756,-11.45081 -6.61458,-17.197916 7.02679,-2.975488 7.36369,-14.387986 2.998,-19.555483 -5.95902,-7.053446 -19.66788,-6.680019 -26.25745,-0.731488 -2.33352,2.106509 -3.57029,5.119721 -4.25722,8.116138 m 12.17083,3.439581 c -0.45506,-0.253352 -0.88962,-0.518146 -1.32944,-0.797424 -0.68281,-0.433574 -3.28048,-1.303797 -2.19956,0.52651 0.67725,1.146781 2.41739,1.579764 2.76445,2.927163 0.39922,1.549889 -0.52974,3.989638 -0.82295,5.545834 -3.53206,-2.012038 -4.44475,-3.419196 -3.70416,-7.408334 -2.0107,-0.46839 -1.84031,2.282242 -1.85208,3.704167 -0.84485,-0.518936 -2.3467,-1.884316 -3.39917,-1.633024 -2.1099,0.503773 1.49365,2.710881 2.07625,2.955941 v 0.529166 c -0.56143,0.161739 -4.3982,2.367952 -2.34083,2.458628 1.45325,0.06405 2.72,-1.614388 4.19291,-1.31435 1.43559,0.292432 2.58646,1.763595 3.96875,2.295306 v 0.264583 c -1.51456,0.551323 -2.93094,1.963728 -4.49791,2.258147 -1.46937,0.276073 -2.50565,-1.367197 -3.93997,-1.36865 -2.59838,-0.0026 1.14372,2.318681 1.8233,2.550086 -0.73284,0.448519 -4.61642,2.120034 -3.9222,3.279734 0.66521,1.111253 3.68163,-1.095961 4.45137,-1.427651 l -0.26459,3.96875 2.09932,-4.713504 5.04443,-3.223995 c -0.44955,1.599724 -0.3189,3.801972 -1.14224,5.236138 -0.8534,1.486537 -3.0187,1.6743 -3.97426,3.047811 -1.48973,2.141318 3.36381,-0.351367 3.79358,-0.611033 -0.23318,0.622652 -1.50752,5.384587 0.16537,4.828242 1.15019,-0.382511 1.14923,-4.087816 1.15755,-5.092825 l 3.70417,2.116666 -2.85815,-3.972625 0.4769,-5.287791 c 1.16488,0.649177 3.35365,1.672491 3.91648,2.937983 0.50786,1.141879 -0.44156,2.457488 -0.0937,3.637197 0.77075,2.61385 1.88612,-2.402187 1.99805,-2.871014 0.50327,0.359394 4.53777,3.10472 4.25416,1.052205 -0.16988,-1.229406 -2.32307,-2.179881 -3.19583,-2.904288 0.50107,-0.144347 4.56191,-1.830145 3.06211,-2.586018 -1.22557,-0.617662 -3.10845,1.466319 -4.38502,1.512779 -1.40992,0.05131 -3.11637,-1.612829 -4.23334,-2.366344 l 5.29167,-2.556821 3.43958,1.233904 c 0.18902,-1.325718 -0.62196,-1.867586 -1.85208,-2.116666 0.85903,-0.885944 4.17862,-2.088794 4.17862,-3.421004 0,-1.559676 -4.12599,1.053642 -4.70779,1.304337 0.43539,-1.286129 1.31624,-3.645296 -0.52916,-3.96875 -0.9991,4.358116 -2.43677,6.137247 -6.61459,7.9375 0.2214,-1.742683 0.28245,-4.565726 1.28536,-6.036421 1.11,-1.627743 4.55101,-1.861361 4.00631,-4.282329 l -3.96875,1.852084 c 0.22496,-0.711375 1.37562,-4.301748 0.20905,-4.518741 -1.35867,-0.25273 -1.49678,3.699338 -1.53197,4.518741 m 0,8.466666 -0.26458,0.264583 0.26458,-0.264583"
       style="fill:#0f507a;stroke:none"
       id="path1"
       inkscape:export-filename="thumb.svg"
       inkscape:export-xdpi="96"
       inkscape:export-ydpi="96" /><path
       style="fill:#0b9edf;fill-opacity:1;stroke-width:0.668641"
       d="m 2670.6024,263.07897 c -0.8967,-0.89667 -0.8996,-0.91832 -0.6951,-5.11655 0.1443,-2.96121 0.5071,-5.40342 1.219,-8.20526 0.5574,-2.19405 0.9715,-4.03803 0.9202,-4.09775 -0.051,-0.0597 -1.7095,0.66268 -3.6848,1.60533 -3.718,1.77425 -7.6691,3.28472 -9.5049,3.63359 -2.6397,0.50165 -2.418,-1.46441 0.4807,-4.26313 1.2646,-1.22098 3.4591,-2.71692 6.0954,-4.15505 7.7755,-4.24163 8.8315,-6.11552 10.6062,-18.82101 0.3926,-2.81132 0.8127,-5.60532 0.9334,-6.20889 l 0.2195,-1.09741 -1.3742,0.83218 c -0.7558,0.45769 -5.118,3.22864 -9.6938,6.15766 l -8.3196,5.3255 -3.5951,8.12061 c -1.9772,4.46633 -3.6542,8.0614 -3.7266,7.98904 -0.072,-0.0724 0.044,-2.61089 0.2582,-5.64119 0.2144,-3.0303 0.3367,-6.00625 0.2718,-6.61324 l -0.1179,-1.1036 -3.9892,2.28406 c -6.9976,4.00656 -10.6324,5.074 -12.141,3.56544 -0.8753,-0.87526 -0.8741,-1.53412 0.01,-2.9566 1.2676,-2.05102 5.5221,-4.99275 11.7485,-8.12328 l 2.8774,-1.44676 -3.0636,-1.80175 c -3.2224,-1.89517 -7.4047,-5.60002 -7.4047,-6.55944 0,-0.76198 2.1571,-1.44052 3.8553,-1.21274 1.3749,0.18441 3.7159,1.2422 8.2169,3.71289 2.1498,1.18001 2.843,1.39032 4.5832,1.39032 3.1648,0 4.9207,-0.75748 13.1697,-5.68135 1.8086,-1.07955 3.7988,-2.14742 4.4228,-2.37304 1.6835,-0.60879 1.4406,-1.41935 -0.8053,-2.68687 -1.0669,-0.60209 -3.4222,-2.17319 -5.2341,-3.49133 -4.6051,-3.35023 -6.6546,-4.27469 -9.502,-4.28605 -2.132,-0.008 -2.5827,0.14306 -6.938,2.33321 -5.0582,2.54364 -7.8121,3.21483 -9.126,2.22421 -0.6207,-0.46801 -0.6238,-0.53681 -0.062,-1.39447 0.8059,-1.22999 3.6722,-3.34493 7.451,-5.49777 2.9132,-1.65971 3.1494,-1.8756 3.1432,-2.87172 -0.01,-0.97577 -0.2917,-1.25512 -3.0353,-2.96959 -3.9984,-2.49862 -7.0176,-5.47431 -7.0176,-6.91641 0,-0.82241 0.229,-1.17793 1.0234,-1.58873 2.4009,-1.24153 5.1562,-0.3425 10.6153,3.46362 1.7758,1.23809 3.3177,2.25107 3.4265,2.25107 0.1087,0 0.1977,-1.5533 0.1977,-3.45177 0,-7.28579 1.7411,-10.77051 5.3812,-10.77051 1.1862,0 1.2687,0.0645 1.0741,0.83989 -0.116,0.46193 -0.3696,2.37088 -0.5636,4.24209 -0.7231,6.97338 0.8506,12.10106 4.9537,16.14097 2.1792,2.1456 9.1401,6.97716 9.7562,6.77178 0.8921,-0.29736 3.6804,-13.57931 3.6804,-17.5315 0,-4.52384 -0.8213,-5.9548 -5.6069,-9.76946 -3.9732,-3.16704 -4.8786,-4.13029 -5.6761,-6.03907 -0.6276,-1.50204 -0.6289,-1.4251 0.034,-2.08795 1.2845,-1.28451 5.5313,-0.17102 10.3773,2.72086 1.7856,1.06552 3.3128,1.93731 3.3939,1.93731 0.081,0 0.2458,-1.60743 0.366,-3.57206 0.3739,-6.11111 1.6141,-10.99871 3.2493,-12.80558 0.5735,-0.63374 2.0347,-0.81668 2.7731,-0.34719 0.6154,0.39133 1.149,2.02953 1.149,3.52746 0,1.7849 -0.8995,6.47337 -1.9281,10.04962 -0.4624,1.60751 -0.7856,2.97786 -0.7182,3.04523 0.067,0.0674 3.2942,-1.36494 7.1708,-3.1829 3.8765,-1.81797 7.2759,-3.3054 7.5541,-3.3054 0.403,0 0.4643,0.3516 0.3013,1.72759 -0.375,3.16642 -2.0783,4.88867 -8.337,8.42985 -6.6023,3.73557 -8.4269,6.22862 -9.9284,13.56535 -0.7096,3.46727 -1.9441,14.35202 -1.6599,14.63616 0.2606,0.26069 5.6012,-2.28219 8.4127,-4.00569 5.805,-3.55862 9.4501,-7.31644 12.1051,-12.47944 1.5893,-3.09065 3.2812,-7.78376 4.0401,-11.2071 0.2432,-1.09703 0.6284,-1.99459 0.856,-1.99459 0.2276,0 0.9442,0.35693 1.5925,0.79317 2.289,1.54034 2.5683,5.13122 0.824,10.59271 -0.4678,1.46463 -0.8525,2.84639 -0.855,3.07058 0,0.2242 2.6102,-0.91016 5.8059,-2.52078 8.0235,-4.04385 11.0311,-4.70063 11.7113,-2.55744 0.6456,2.03411 -2.262,4.78489 -9.8629,9.33088 -2.6906,1.60922 -5.1394,3.19915 -5.4417,3.53318 -0.5128,0.56666 -0.4486,0.6342 0.9582,1.00875 3.5554,0.94659 5.3093,2.68688 5.7188,5.67448 l 0.2209,1.61168 -4.9911,-1.77978 c -2.745,-0.97887 -5.7282,-2.02449 -6.6292,-2.32359 l -1.6382,-0.54382 -10.0528,4.83284 c -5.529,2.65806 -10.0517,4.91089 -10.0505,5.00629 0,0.20139 2.9412,2.37581 7.3822,5.46256 5.3926,3.74829 8.7973,4.41729 12.5671,2.46937 0.9328,-0.48199 3.3738,-1.76141 5.4244,-2.84316 3.0938,-1.63205 4.0237,-1.96681 5.4634,-1.96681 1.2725,0 1.92,0.18494 2.4288,0.69377 0.9836,0.98364 0.8881,1.32029 -0.8466,2.98243 -1.4292,1.36939 -8.5289,5.2594 -10.5488,5.77981 -0.4743,0.1222 -0.7168,0.36952 -0.5798,0.59127 0.1296,0.20966 1.9014,1.48409 3.9374,2.83207 4.3856,2.90367 6.4959,4.82588 7.377,6.71965 0.8362,1.79733 0.8225,2.43994 -0.071,3.33363 -0.6024,0.60246 -0.9827,0.69191 -2.1486,0.50546 -1.9411,-0.31038 -6.5635,-2.52694 -10.1638,-4.8737 -1.6454,-1.07256 -3.0252,-1.90295 -3.0662,-1.84529 -0.041,0.0576 -0.4326,1.50971 -0.8703,3.22679 -1.0784,4.23066 -2.6614,8.29079 -3.7255,9.55546 -0.7401,0.87951 -0.9633,0.97438 -1.4137,0.60086 -1.4802,-1.22748 -1.8588,-4.80012 -0.9477,-8.94223 0.6522,-2.96535 0.6463,-5.61621 -0.016,-7.209 -0.6641,-1.59691 -3.1822,-4.22581 -5.708,-5.95916 -2.5808,-1.77112 -9.03,-5.32102 -9.2561,-5.09493 -0.1763,0.17629 -1.8275,17.53331 -1.8385,19.32477 0,0.59337 1.5989,3.12518 4.827,7.62657 2.6578,3.70608 4.7798,6.7909 4.7156,6.85517 -0.064,0.0643 -2.8581,-1.45549 -6.2086,-3.37722 -3.3504,-1.92174 -6.2294,-3.49407 -6.3977,-3.49407 -0.1683,0 -0.4028,2.3805 -0.5211,5.28999 -0.3232,7.9508 -1.5694,12.51081 -3.7234,13.6247 -1.2765,0.66007 -1.2465,0.66514 -2.3013,-0.38961 z"
       id="path28"
       transform="scale(0.26458333)" /></g></svg>
