<?xml version="1.0" encoding="UTF-8" standalone="no"?>
<!-- Created with Inkscape (http://www.inkscape.org/) -->

<svg
   version="1.1"
   id="svg1"
   width="331.41986"
   height="510.9238"
   viewBox="0 0 331.41986 510.9238"
   xmlns="http://www.w3.org/2000/svg"
   xmlns:svg="http://www.w3.org/2000/svg">
  <defs
     id="defs1" />
  <g
     id="g1"
     transform="translate(-595.17145,35.728737)">
    <path
       style="display:inline;fill:#fafafa;fill-opacity:1"
       d="m 689.29558,455.19891 c -10.98969,-11 -20.44885,-20 -21.02036,-20 -0.57151,0 -12.24462,4.0436 -25.94025,8.98579 -13.69563,4.94218 -24.98625,8.87968 -25.09027,8.75 -0.20307,-0.25318 37.25141,-153.37589 38.04015,-155.51708 0.33933,-0.9212 1.95291,-0.40489 5.74135,1.83709 21.73982,12.8655 48.67459,22.062 74.57076,25.46113 5.72886,0.75197 10.55318,1.50579 10.7207,1.67515 0.46547,0.47055 -35.94939,148.7997 -36.53146,148.80408 -0.28015,0.002 -9.50093,-8.99616 -20.49062,-19.99616 z m 103.84267,-54.26067 c -9.98653,-40.83163 -18.00224,-74.39863 -17.81268,-74.59332 0.18956,-0.19469 4.08536,-0.77095 8.65733,-1.28057 24.73449,-2.75705 54.68449,-12.85079 76.58208,-25.80964 3.7908,-2.24338 5.4026,-2.75886 5.7443,-1.83709 0.7453,2.01073 38.2909,155.25708 38.0935,155.48249 -0.097,0.11067 -11.3562,-3.82683 -25.0206,-8.75 -13.6643,-4.92316 -25.353,-8.9512 -25.9748,-8.9512 -0.6218,0 -10.1221,9 -21.1118,20 -10.98969,11 -20.21047,19.9952 -20.49062,19.98933 -0.28016,-0.006 -8.68018,-33.41837 -18.66671,-74.25 z M 736.79558,294.57385 c -36.67145,-5.51546 -69.14544,-22.32766 -95.33254,-49.35488 -22.72435,-23.45338 -37.28962,-51.40316 -43.82338,-84.09414 -3.27781,-16.40019 -3.29314,-45.37824 -0.0326,-61.681332 17.11857,-85.595523 95.23604,-143.516586 180.97795,-134.188116 86.51707,9.412793 151.18267,84.160794 147.88567,170.943528 -1.6623,43.75574 -19.1527,82.84659 -50.8086,113.55675 -25.4727,24.71166 -56.53013,39.89241 -91.89652,44.91863 -12.95556,1.84123 -34.36448,1.79545 -46.96996,-0.10044 z m 2.75,-76.03871 21.25,-10.83623 21.47263,11 c 21.1973,10.85896 21.55953,10.99943 28.25,10.9555 16.07264,-0.10552 29.27737,-12.87779 29.27737,-28.31851 0,-1.925 -1.63456,-13.02741 -3.63235,-24.67201 l -3.63236,-21.17201 15.95611,-15.6146 c 19.3127,-18.89946 21.7185,-22.62844 21.7721,-33.74659 0.031,-6.490252 -0.3933,-8.409032 -2.9813,-13.471472 -3.3481,-6.54958 -10.0964,-12.42895 -16.4511,-14.33287 -2.0778,-0.62251 -13.17226,-2.52686 -24.65443,-4.2319 -11.48217,-1.70503 -20.93871,-3.16655 -21.01454,-3.24781 -0.0758,-0.0813 -4.51873,-8.922742 -9.87311,-19.647742 -5.35439,-10.725 -10.99675,-21.097968 -12.53858,-23.05104 -1.54184,-1.953073 -5.19894,-4.878074 -8.12689,-6.500001 -4.7233,-2.616456 -6.28195,-2.94896 -13.82355,-2.94896 -7.54481,0 -9.09927,0.331951 -13.83272,2.95395 -2.93299,1.624673 -6.45785,4.291089 -7.833,5.925368 -1.37516,1.63428 -7.01332,12.005002 -12.52926,23.046053 -5.51593,11.04104 -10.12492,20.183472 -10.2422,20.316502 -0.11727,0.13302 -9.62938,1.5981 -21.13802,3.25571 -23.88876,3.44076 -27.99181,4.58727 -33.98156,9.49542 -6.52939,5.35034 -9.94961,13.11184 -9.91805,22.507002 0.0377,11.21554 2.18401,14.5455 21.52367,33.39337 l 16.22998,15.81725 -3.63942,21.21319 c -2.00168,11.66725 -3.63942,22.78819 -3.63942,24.71319 0,15.99788 14.8602,29.63145 31,28.44111 4.6008,-0.33932 8.9742,-2.17727 26.75,-11.24187 z m -26.76752,-21.58623 c -0.01,-0.6875 1.90286,-12.63057 4.25,-26.54015 l 4.26752,-25.29015 -19.25924,-19.11727 c -10.59259,-10.5145 -19.14259,-19.2296 -19,-19.36688 0.14258,-0.13727 12.18424,-1.97893 26.75924,-4.09257 l 26.5,-3.842992 11.92079,-24.25 c 6.55643,-13.337502 12.21708,-24.250002 12.57921,-24.250002 0.36213,0 6.02278,10.91244 12.57921,24.249872 l 11.92079,24.24987 26.44703,3.780492 c 14.54586,2.07927 26.58752,3.92099 26.75924,4.09271 0.17172,0.17172 -8.35444,8.91425 -18.94703,19.42784 l -19.25924,19.11562 4.40444,26.05403 c 2.42244,14.32972 4.16659,26.29188 3.87589,26.58258 -0.2907,0.29071 -10.84647,-4.8898 -23.45725,-11.51222 -12.61078,-6.62243 -23.53765,-12.04078 -24.28193,-12.04078 -0.74428,0 -11.59952,5.4 -24.12277,12 -12.52324,6.6 -23.02803,12 -23.34396,12 -0.31593,0 -0.5823,-0.5625 -0.59194,-1.25 z"
       id="path1" />
  </g>
</svg>
