<?xml version="1.0" encoding="UTF-8" standalone="no"?>
<!-- Created with Inkscape (http://www.inkscape.org/) -->

<svg
   width="153.75903mm"
   height="42.240898mm"
   viewBox="0 0 153.75903 42.240898"
   version="1.1"
   id="svg1"
   xml:space="preserve"
   xmlns="http://www.w3.org/2000/svg"
   xmlns:svg="http://www.w3.org/2000/svg"><defs
     id="defs1" /><g
     id="layer1"
     transform="translate(-453.23744,-137.98074)"><path
       style="fill:#ffffff;stroke:none"
       d="m 454.33196,150.6078 h 0.26459 c 3.83523,-5.03308 11.18797,-6.41138 17.19791,-5.63076 3.41125,0.44307 6.37535,1.38263 7.84155,4.83702 2.31885,5.4632 -2.26649,8.4359 -3.12886,13.22916 -0.22959,1.27613 0.53708,2.76157 0.88072,3.96875 0.83212,2.92326 1.6768,5.85255 2.65359,8.73125 0.37175,1.09561 0.75835,3.24247 1.72755,3.9614 1.31412,0.97477 5.08683,0.27193 6.6942,0.27193 -3.20485,-5.32377 -4.39756,-11.45081 -6.61458,-17.19791 7.02679,-2.97549 7.36369,-14.38799 2.998,-19.55549 -5.95902,-7.05344 -19.66788,-6.68001 -26.25745,-0.73148 -2.33352,2.10651 -3.57029,5.11972 -4.25722,8.11613 m 134.67291,-4.49791 c 1.87512,-0.50872 4.758,0.97176 5.29167,-1.5875 -2.0662,-0.13753 -4.74057,-0.87813 -5.29167,1.5875 m -44.97916,6.61458 h -4.49792 v 2.38125 l 1.5875,-0.26458 c 0.10472,1.56403 -1.01869,4.17068 -2.80344,2.3 -1.3484,-1.41334 -1.784,-7.94244 0.96095,-8.21025 1.20148,-0.11723 1.43283,1.13363 2.23794,1.66977 0.67244,0.44778 1.74707,0.27165 2.51497,0.27173 -0.32943,-3.74951 -4.81633,-6.13834 -7.88095,-3.33526 -1.61692,1.47893 -1.72226,4.46834 -1.63363,6.51026 0.0677,1.55915 0.24765,3.45725 1.25962,4.71269 1.5954,1.97923 5.73686,1.95605 7.35036,0.022 1.33416,-1.5992 0.9046,-4.12366 0.9046,-6.05765 m 35.71875,7.40833 -0.26459,1.5875 1.85209,0.26458 v 0.52917 h -1.85209 l -0.26458,1.05833 c 3.35135,1.38605 3.83853,-1.41732 1.85208,-3.43958 2.74538,-0.0585 4.25817,-1.48767 4.49792,-4.23333 h -2.91042 c -0.49882,1.45081 -2.03989,2.63147 -3.24706,1.022 -1.2357,-1.64751 -1.43815,-7.72648 1.39417,-7.99059 1.37637,-0.12834 1.41469,1.323 2.2655,1.93416 0.64096,0.46042 1.75281,0.27185 2.49781,0.27193 -0.0839,-3.93675 -4.59085,-6.344 -7.90973,-3.79624 -3.49836,2.68553 -2.55455,11.96328 2.0889,12.79207 m 21.16666,-13.63543 c -6.64557,1.20673 -5.35774,15.09196 2.64584,13.5454 2.8515,-0.55101 3.43562,-3.53533 3.43958,-5.99539 0.006,-3.99933 -0.9511,-8.48233 -6.08542,-7.55001 m -107.42083,0.14168 0.26459,13.49375 h 2.64583 v -4.7625 l 3.09538,4.49057 2.99004,0.27193 -2.38125,-5.55625 c 2.70384,-1.29197 2.90491,-5.83276 0.2605,-7.38465 -1.85166,-1.08666 -4.8058,-0.55285 -6.87509,-0.55285 m 10.31875,0 v 13.49375 h 7.14375 v -2.38125 c -2.99064,0 -4.49754,0.22668 -4.49791,-3.175 h 3.96875 v -2.38125 c -1.1226,0 -6.4513,-0.83705 -3.35547,-2.90307 0.93749,-0.62564 2.80125,-0.27193 3.88463,-0.27193 v -2.38125 h -7.14375 m 8.46667,0 v 13.49375 h 2.91042 v -5.55625 h 3.43958 v -2.38125 h -3.43958 v -3.175 h 3.70416 v -2.38125 h -6.61458 m 8.20208,0 v 13.49375 h 2.91042 l -0.26458,-4.7625 3.13539,4.33827 2.95002,0.42423 -2.38125,-5.55625 c 2.55211,-1.2196 2.92646,-5.56549 0.51753,-7.21581 -1.8128,-1.24193 -4.78679,-0.72169 -6.86753,-0.72169 m 9.78959,0 v 13.49375 h 2.91041 v -13.49374 h -2.91041 m 15.34583,0 v 13.49374 h 7.40833 v -2.38125 h -4.49791 v -3.175 h 3.96875 v -2.38125 h -3.96875 v -3.17499 h 4.23333 l 0.26458,-2.38125 h -7.40833 m 8.99583,0 v 13.49374 h 2.64584 v -4.7625 h 1.32291 c 0.58756,3.30633 1.74812,4.7625 5.02709,4.7625 -0.58704,-1.40999 -2.16978,-3.43873 -2.05767,-5.0034 0.17426,-2.43219 3.16502,-4.70947 0.63043,-7.34117 -1.74237,-1.80912 -5.30079,-1.14917 -7.5686,-1.14917 m 10.05417,13.49374 h 2.91042 c 0.39141,-2.88989 1.99494,-2.64583 4.49791,-2.64583 0.20417,2.49611 1.15373,2.64583 3.43958,2.64583 -0.75169,-3.27889 -1.72116,-6.55366 -2.64583,-9.78958 -0.27512,-0.9628 -0.39273,-2.79039 -1.24432,-3.43223 -0.74574,-0.56207 -2.88064,-0.48298 -3.40447,0.34134 -0.66309,1.0435 -0.83057,2.69979 -1.17204,3.88464 -0.82823,2.87387 -2.12147,6.02046 -2.38125,8.99583 m 24.87083,-13.49374 -3.70417,13.49374 h 2.91042 l 0.52917,-2.64583 h 3.96875 l 0.52916,2.64583 h 2.91042 l -2.56908,-9.78958 -1.28412,-3.43223 -3.29055,-0.27193 m 12.17471,2.24589 c 3.54277,-0.52378 3.66352,8.55899 0.52142,8.90009 -3.3281,0.36128 -3.48242,-8.46233 -0.52142,-8.90009 m -105.30804,4.1041 v -3.96874 c 3.70403,0.0335 3.66219,3.8903 0,3.96874 m 26.72292,0 c 0,-0.97149 -0.27865,-2.46673 0.15964,-3.35547 1.03176,-2.09209 5.0645,2.18426 1.42418,3.24074 -0.50561,0.14673 -1.06404,0.11003 -1.58382,0.11473 m 34.13125,0 v -3.96874 c 3.85091,0.0349 3.85088,3.9339 0,3.96874 m -90.75209,1.05834 c -0.45506,-0.25335 -0.88962,-0.51815 -1.32944,-0.79743 -0.68281,-0.43357 -3.28048,-1.30379 -2.19956,0.52651 0.67725,1.14679 2.41739,1.57977 2.76445,2.92717 0.39922,1.54989 -0.52974,3.98964 -0.82295,5.54583 -3.53206,-2.01204 -4.44475,-3.41919 -3.70416,-7.40833 -2.0107,-0.46839 -1.84031,2.28224 -1.85208,3.70416 -0.84485,-0.51893 -2.3467,-1.88431 -3.39917,-1.63302 -2.1099,0.50377 1.49365,2.71088 2.07625,2.95594 v 0.52917 c -0.56143,0.16174 -4.3982,2.36795 -2.34083,2.45863 1.45325,0.0641 2.72,-1.61439 4.19291,-1.31435 1.43559,0.29243 2.58646,1.76359 3.96875,2.2953 v 0.26458 c -1.51456,0.55133 -2.93094,1.96373 -4.49791,2.25815 -1.46937,0.27607 -2.50565,-1.3672 -3.93997,-1.36865 -2.59838,-0.003 1.14372,2.31868 1.8233,2.55009 -0.73284,0.44852 -4.61642,2.12003 -3.9222,3.27973 0.66521,1.11125 3.68163,-1.09596 4.45137,-1.42765 l -0.26459,3.96875 2.09932,-4.7135 5.04443,-3.224 c -0.44955,1.59973 -0.3189,3.80197 -1.14224,5.23614 -0.8534,1.48654 -3.0187,1.6743 -3.97426,3.04781 -1.48973,2.14132 3.36381,-0.35137 3.79358,-0.61103 -0.23318,0.62265 -1.50752,5.38458 0.16537,4.82824 1.15019,-0.38251 1.14923,-4.08782 1.15755,-5.09283 l 3.70417,2.11667 -2.85815,-3.97262 0.4769,-5.2878 c 1.16488,0.64918 3.35365,1.6725 3.91648,2.93799 0.50786,1.14188 -0.44156,2.45749 -0.0937,3.63719 0.77075,2.61385 1.88612,-2.40218 1.99805,-2.87101 0.50327,0.35939 4.53777,3.10472 4.25416,1.05221 -0.16988,-1.22941 -2.32308,-2.17989 -3.19583,-2.90429 0.50107,-0.14435 4.56191,-1.83015 3.06211,-2.58602 -1.22557,-0.61766 -3.10845,1.46632 -4.38502,1.51278 -1.40992,0.0513 -3.11637,-1.61283 -4.23334,-2.36635 l 5.29167,-2.55682 3.43958,1.23391 c 0.18902,-1.32572 -0.62196,-1.86759 -1.85208,-2.11667 0.85903,-0.88594 4.17862,-2.08879 4.17862,-3.421 0,-1.55968 -4.12599,1.05364 -4.70779,1.30433 0.43539,-1.28612 1.31624,-3.64529 -0.52916,-3.96875 -0.9991,4.35812 -2.43677,6.13725 -6.61459,7.9375 0.2214,-1.74268 0.28245,-4.56572 1.28536,-6.03642 1.11,-1.62774 4.55101,-1.86136 4.00631,-4.28233 l -3.96875,1.85209 c 0.22496,-0.71138 1.37562,-4.30175 0.20905,-4.51874 -1.35867,-0.25273 -1.49678,3.69934 -1.53197,4.51874 m 103.71667,-4.23333 1.05833,5.29166 h -2.64583 l 1.5875,-5.29166 m 21.16666,0.26458 1.05834,5.02708 h -2.38125 l 1.32291,-5.02708 m -124.88333,12.43541 -0.26458,0.26459 0.26458,-0.26459 m 27.25209,2.91042 v 14.55208 h 2.91041 v -8.46666 h 0.26459 c 0.63819,2.01673 2.56662,7.01182 4.35786,8.19473 0.78574,0.51888 2.15114,0.27193 3.05047,0.27193 v -14.55208 h -2.91042 v 8.73125 l -4.66654,-8.45932 -3.00637,-0.27193 m 16.93333,0.14005 c -3.20432,0.74072 -3.95468,3.86428 -3.96855,6.73912 -0.0229,4.75985 2.13027,8.97946 7.67272,7.52531 2.86788,-0.75243 3.67232,-3.86176 3.70315,-6.46698 0.0553,-4.67215 -1.90113,-9.07027 -7.40732,-7.79745 m 9.525,14.41203 h 3.175 v -5.02708 c 2.48829,0.3932 2.01578,3.19851 3.60821,4.60285 0.79394,0.70017 2.29006,0.42423 3.27096,0.42423 -0.38446,-1.68028 -2.26833,-3.51311 -2.23058,-5.21613 0.0186,-0.8374 1.02091,-1.49407 1.39988,-2.1924 0.82452,-1.51936 0.74222,-3.82286 -0.22907,-5.2637 -1.05124,-1.55944 -7.34274,-3.19766 -8.72247,-1.45562 -0.64854,0.81886 -0.27193,2.82187 -0.27193,3.8091 0,3.46559 0.48993,6.85827 0,10.31875 m 15.34583,-14.38324 c -3.02979,0.87575 -3.69992,3.95282 -3.70416,6.71033 -0.007,4.74991 2.14941,8.97448 7.67291,7.52531 2.9204,-0.76621 3.69994,-3.83044 3.70417,-6.46698 0.007,-4.5915 -2.0865,-9.38341 -7.67292,-7.76866 m 9.78959,-0.16884 v 14.55208 h 8.46666 v -2.64583 h -5.55625 v -3.175 h 4.7625 v -2.91042 h -4.7625 v -2.91041 h 5.55625 v -2.91042 h -8.46666 m 13.49375,10.31875 h -3.175 c 0.41367,1.58137 0.80398,2.98664 2.38226,3.78664 3.08325,1.56284 7.99412,-0.0691 7.58187,-4.05122 -0.30127,-2.91013 -2.73798,-3.54115 -4.93685,-4.71595 -0.70124,-0.37466 -1.91532,-1.13592 -1.35211,-2.08952 0.83528,-1.41425 4.78626,0.72005 6.37899,0.72005 -0.39273,-1.1968 -0.78131,-2.43387 -1.87699,-3.17643 -2.46018,-1.66728 -7.33674,-1.01341 -7.85584,2.38268 -0.75947,4.96871 4.78618,3.77119 6.23037,6.90673 0.95231,2.06759 -2.71494,2.5247 -3.3767,0.23702 m 7.9375,-7.40833 h 3.70416 v 11.64166 h 3.175 l -0.14862,-7.9375 0.32909,-3.28381 2.99453,-0.42035 v -2.91042 h -7.14375 l -2.63848,0.42423 -0.27193,2.48619 m 11.90624,11.64166 h 8.46667 v -2.64583 h -5.29167 v -3.43958 h 4.49792 v -2.64584 h -4.49792 v -2.91041 h 5.02709 v -2.91042 c -1.75579,0 -6.38598,-0.83046 -7.77785,0.27193 -0.81533,0.64575 -0.42424,2.77718 -0.42424,3.69682 v 10.58333 M 511.75063,168.1756 c 4.23854,-0.94276 4.61059,8.39527 1.31474,9.08118 -4.41562,0.91894 -4.74748,-8.31765 -1.31474,-9.08118 m 11.63758,4.128 v -4.23334 c 4.2752,0.0911 4.36009,4.23046 0,4.23334 m 13.49784,-4.128 c 4.18511,-0.93205 4.68669,8.14167 1.57198,9.04034 -4.69316,1.35409 -5.04982,-8.2658 -1.57198,-9.04034 z"
       id="path25" /></g></svg>
