<svg width="119" height="36" viewBox="0 0 119 36" fill="none" xmlns="http://www.w3.org/2000/svg">
<g clip-path="url(#clip0_9218_972)">
<path d="M0 8.44341C1.47766 7.40249 2.58455 5.87243 4.11675 4.83856C7.20269 2.75629 11.3262 2.34067 14.9232 3.13896C20.0751 4.28228 23.5021 11.2613 18.2681 14.6952V14.9504C24.2872 18.621 21.4312 27.1319 16.467 30.3886C17.6855 32.9929 14.2871 33.8037 12.2216 34.4714V34.599C18.4856 34.5983 24.3207 30.1651 25.6263 24.0092C26.3647 20.5276 25.8681 16.0968 22.2562 14.3125C27.1001 10.3896 26.0302 2.9223 20.0692 0.799641C12.9306 -1.74233 3.71591 2.03737 0 8.44341ZM5.40324 5.63647C4.70788 10.3236 2.77007 15.1022 1.48919 19.6712C1.02689 21.3202 0.278833 23.0665 0.128649 24.7747L1.87643 24.6437L2.95951 23.6875L6.04291 22.5522L6.30378 21.3298H5.14594L6.30378 16.6091C7.99444 16.6091 11.6864 15.9493 12.6477 17.7625C13.0495 18.5204 12.8649 19.6067 12.8649 20.4367C14.2227 20.5431 14.9413 20.7928 14.9232 22.2229C16.2963 22.1596 16.7035 20.9818 16.9947 19.7988C17.5449 17.5637 17.0148 15.6161 14.6659 14.8228C15.6678 14.2572 16.6931 13.8806 17.3947 12.9089C19.0616 10.6002 18.4199 7.17737 15.6951 6.07712C12.7713 4.89649 8.52157 5.63647 5.40324 5.63647ZM63.1665 14.8228L60.7222 15.2056C61.0103 16.3651 61.2108 17.4236 62.2664 18.1656C64.4925 19.7301 68.5222 19.0033 69.109 16.0987C69.5611 13.8612 68.1156 12.4915 66.2541 11.5385C65.4126 11.1077 64.1333 10.6868 63.7772 9.71919C63.4842 8.92328 64.3186 8.1703 65.0962 8.24228C65.9175 8.3183 66.376 8.97832 66.5114 9.71929L68.9557 9.46412C68.626 5.46125 62.2519 4.33066 61.1286 8.44341C60.4765 10.8305 62.0911 12.2734 64.067 13.2602C64.8731 13.6627 66.2129 14.0972 66.4536 15.0781C66.7006 16.0847 65.5883 16.7227 64.7103 16.5651C63.8062 16.4029 63.3179 15.6645 63.1665 14.8228ZM82.2065 15.2056C82.4036 19.6906 89.9264 20.4065 90.5314 15.8435C90.8679 13.3061 88.9692 12.1714 86.9665 11.154C86.2613 10.7957 84.7034 9.97536 85.1936 8.95937C86.1508 6.97552 87.4159 9.3288 88.1632 9.63728C88.7537 9.881 89.8056 9.49112 90.44 9.46412C90.2823 8.25327 89.8729 7.12778 88.7675 6.46313C86.6072 5.16434 82.7966 5.99373 82.4861 8.82618C82.1955 11.4765 84.0541 12.578 86.1946 13.643C86.9508 14.0192 88.3684 14.7987 87.7547 15.8416C87.1557 16.8592 85.8048 16.749 85.066 15.9573C84.8155 15.6888 84.7021 15.1854 84.3546 15.0279C83.7939 14.7737 82.7974 15.1315 82.2065 15.2056ZM70.4995 6.01924V18.778H72.9438L73.0724 14.5676V6.14682L70.4995 6.01924ZM116.556 6.01924L115.121 11.1228L114.111 15.3332H113.983L112.358 8.69859L111.594 6.27796L108.965 6.14682L112.439 18.778H115.526L119 6.01924H116.556ZM31.6476 6.14682V18.6505C33.5257 18.6505 36.565 19.2235 38.2082 18.1959C40.2503 16.9188 40.4315 13.1699 38.08 12.1435C39.8579 10.7707 39.9412 7.50969 37.694 6.47269C36.0105 5.69579 33.4664 6.14682 31.6476 6.14682ZM41.1676 6.14682L41.2962 13.5469L41.1676 18.6505L41.2962 18.778H43.7405V14.3125C45.8179 14.3141 46.0624 17.2526 46.9568 18.778H49.6584C49.381 17.2347 47.6333 15.6137 47.6732 14.0623C47.6851 13.5972 48.2718 13.2548 48.5276 12.9071C48.9412 12.3449 49.1454 11.6791 49.2352 10.9952C49.3103 10.4237 49.3168 9.77975 49.2338 9.20894C48.6658 5.30125 44.0542 6.14682 41.1676 6.14682ZM53.9038 6.14682L50.3016 18.6505L52.8746 18.778C53.007 18.1418 53.0958 16.8885 53.5904 16.4309C54.2126 15.8552 56.3016 16.2263 57.12 16.2263L57.7552 18.5685L60.4649 18.6505L56.8627 6.14682H53.9038ZM74.8735 6.14682L75.0022 14.9504V18.778C76.9594 18.3159 79.5756 18.5313 81.5632 18.778V16.4815H77.4465V6.14682H74.8735ZM91.8551 6.14682V15.5883C91.8551 16.176 91.5333 18.2775 92.0614 18.6355C92.4239 18.8813 93.4717 18.6505 93.9135 18.6505C95.5176 18.6505 97.2215 18.487 98.8022 18.778V16.4815H94.4281V13.4193H98.2876V11.2503H94.4281V8.31582H98.8022V6.14682H91.8551ZM100.346 6.14682V18.778H102.919V14.3125C104.8 14.3191 105.388 17.2821 106.006 18.778H108.837L106.521 13.8021C108.898 12.5793 109.236 8.16043 106.907 6.67421C105.217 5.59606 102.276 6.14682 100.346 6.14682ZM34.0919 11.2503V8.06065C34.7926 8.06072 35.663 7.99879 36.2719 8.41003C37.1757 9.02057 37.0954 10.5158 36.1382 11.0349C35.5379 11.3605 34.7511 11.2503 34.0919 11.2503ZM43.7405 12.1435V8.18824C44.4822 8.18824 45.388 8.05289 46.0427 8.47255C46.9594 9.06012 47.0106 11.1145 46.1574 11.7793C45.4985 12.2927 44.523 12.1435 43.7405 12.1435ZM102.919 12.1435V8.18824C103.65 8.18824 104.57 8.04608 105.21 8.47255C106.172 9.11281 106.172 11.2189 105.21 11.8591C104.57 12.2856 103.65 12.1435 102.919 12.1435ZM7.46162 13.1642C7.60798 12.1776 7.8943 9.88642 8.6007 9.15834C8.90209 8.84769 9.51439 8.95379 9.90594 8.95376C10.8996 8.9537 12.7433 8.67535 13.4126 9.60874C14.5795 11.2361 12.6076 13.0286 11.0638 13.1523C9.8771 13.2473 8.65217 13.1642 7.46162 13.1642ZM55.3189 9.20894L56.4768 14.0573H54.0324L55.3189 9.20894ZM34.0919 16.4815V13.1642C34.8604 13.1642 35.8312 13.024 36.5124 13.4549C37.3854 14.0071 37.4755 15.7663 36.5223 16.2956C35.8597 16.6635 34.826 16.4815 34.0919 16.4815ZM10.0346 22.2229C9.43009 21.943 8.77285 21.3586 8.10545 21.2695C7.60089 21.2021 7.23253 21.6213 7.54172 22.0723C8.00277 22.7448 9.32353 22.9455 9.54729 23.7659C9.78974 24.6549 9.02545 26.1075 9.00539 27.0713C8.32623 26.7909 6.97229 26.3773 6.56464 25.7456C6.26668 25.2838 6.59096 24.3634 6.09799 24.0152C5.27941 23.4368 5.17285 24.8549 5.27458 25.285C4.96076 25.1798 2.1417 24.129 2.86728 25.4855C3.12852 25.9739 4.38763 26.1441 4.88863 26.3057C4.41293 26.5811 3.68941 26.7766 3.3118 27.1752C2.93402 27.574 3.20098 28.0915 3.73328 28.0426C4.5732 27.9654 5.22292 27.1086 6.04647 27.0901C6.69014 27.0756 7.56002 27.7763 8.10485 28.092C7.14222 28.4895 6.04752 29.4582 5.01728 29.5791C4.19211 29.676 3.43831 28.7142 2.59202 29.0803C1.35767 29.6142 3.11296 30.3169 3.60214 30.3886C3.04277 30.9493 1.50946 31.1913 1.24299 31.9443C0.853931 33.0438 3.73806 31.6396 4.11674 31.5369L3.85944 33.1955C5.3151 33.1485 4.92491 31.8259 5.62539 30.9409C6.21823 30.1918 7.62269 29.7263 8.4908 29.3679C8.25546 30.1059 8.33533 31.1395 7.89868 31.7869C7.34821 32.6031 6.23311 32.8171 5.57336 33.5166C4.62904 34.5179 6.42533 33.9947 6.81817 33.7809C7.11468 33.6195 7.41506 33.4703 7.71891 33.3231C7.69249 33.9333 7.17091 35.2858 7.59373 35.7959C8.38417 36.7495 8.86063 34.0724 8.87675 33.7059C9.35261 33.8786 9.90721 34.3809 10.418 34.3775C10.886 34.3743 11.1213 33.8744 10.855 33.5103C10.4958 33.0193 9.55311 32.883 9.37715 32.2756C9.12029 31.389 9.75782 30.0481 9.77729 29.1127C10.4765 29.4119 11.8079 29.9577 12.2676 30.566C12.6974 31.1347 12.0589 31.9195 12.3043 32.5283C12.8613 33.9099 13.5858 31.5456 13.6367 31.1541C13.9767 31.2944 15.7142 32.3826 15.8339 31.6385C15.9191 31.1086 14.6268 30.4473 14.28 30.1334C14.7853 29.9966 15.494 29.845 15.896 29.4961C16.2147 29.2196 16.1629 28.7245 15.6875 28.6848C14.7868 28.6098 13.952 29.584 13.0481 29.4678C12.2728 29.3681 11.4984 28.5595 10.8065 28.2196C11.641 27.6737 13.0016 26.7174 14.0227 26.6571C14.6654 26.6192 15.4004 27.6157 16.0228 27.1934C16.7083 26.7282 15.5254 26.0858 15.1805 25.923V25.7954C15.8326 25.5262 16.7776 25.2339 17.3117 24.7755C17.5384 24.5808 17.7115 24.1117 17.3262 23.9719C16.6527 23.7278 15.2893 24.7725 14.6659 25.0299C14.787 24.7182 15.4899 23.0998 14.5514 23.3572C13.8508 23.5494 13.6964 24.8877 13.296 25.3992C12.6682 26.2013 11.2182 26.6888 10.2919 27.0713C10.4896 26.0307 10.4954 24.4645 11.2283 23.6398C11.705 23.1033 13.6215 22.7711 13.7054 22.0858C13.8479 20.9223 11.3974 22.285 11.0638 22.4781C11.1084 21.9169 11.7747 19.7759 11.2453 19.4334C10.49 18.9447 10.1218 21.8034 10.0346 22.2229ZM95.4573 22.4781C95.8424 22.4699 96.0163 22.485 96.1005 22.0953C97.0663 22.3567 98.0549 22.6968 98.1589 21.3298H97.5157V21.8402C96.5443 21.4902 95.5384 21.0121 95.4573 22.4781ZM65.6108 26.1782H63.1665V27.0713H64.453C64.2504 28.064 63.1445 28.6066 62.2798 27.9091C61.152 26.9992 61.4137 24.4159 63.0378 24.1863C63.9408 24.0586 64.5804 24.9031 65.6108 24.7747C64.9738 22.9669 62.5676 22.3172 61.1762 23.7959C60.3046 24.7223 60.2856 26.158 60.5066 27.3265C60.8668 29.2299 63.3408 30.0764 64.8151 28.79C65.6148 28.0922 65.6108 27.1486 65.6108 26.1782ZM90.1827 30.261V30.5162H89.1535L88.8962 31.1541C90.2513 31.4981 91.8399 30.1297 90.054 29.4955C90.8199 28.6297 91.9681 28.9486 92.2411 27.454L91.2119 27.1989C91.0679 27.4716 90.933 27.7128 90.6834 27.9097C88.0655 29.9739 87.6426 22.6431 90.5663 24.3733C90.8496 24.541 91.0229 24.7717 91.2119 25.0299L92.3697 24.7747C91.61 22.9773 89.1451 22.1794 87.8482 24.0143C87.0816 25.0988 87.0696 27.3064 87.9176 28.3447C88.2728 28.7795 88.8475 28.8145 89.1852 29.1891C89.5983 29.6474 89.5169 29.9986 90.1827 30.261ZM103.176 23.0564C99.7181 23.8735 100.799 30.1373 104.591 29.318C108.088 28.5626 106.957 22.1631 103.176 23.0564ZM31.6476 23.116V29.2403H32.934V27.0713C34.2461 27.1139 34.0109 28.3309 34.8171 29.0357C35.1578 29.3335 35.7303 29.2402 36.1503 29.2403L34.9924 26.8161C36.2972 26.1978 36.3956 24.1253 35.1191 23.3826C34.1919 22.8432 32.6846 23.116 31.6476 23.116ZM38.3373 23.116V29.2403H42.1967L42.0681 28.2196H39.6238V26.8161H41.9394L41.8108 25.6678L39.6238 25.7954V24.1368L42.0681 24.2643V23.116H38.3373ZM44.3838 23.116C44.7166 24.8938 44.8069 27.4777 44.3838 29.2403H45.6703V26.6885H47.9859V25.6678H45.6703V24.1368L48.1146 24.2643L48.2432 23.116H44.3838ZM50.3016 23.116V29.2403H51.5881V27.0713C52.9449 27.1151 52.6445 28.313 53.4712 29.0357C53.8119 29.3335 54.3843 29.2402 54.8043 29.2403C54.6085 28.5662 53.892 27.7868 53.8622 27.1077C53.8369 26.532 54.6111 25.9585 54.6636 25.285C54.8632 22.7213 52.0309 23.116 50.3016 23.116ZM56.9913 23.116V29.2403H58.2778V23.116H56.9913ZM67.9265 23.116V29.2403H71.7859V28.2196H69.213V26.8161H71.5286V25.6678H69.213V24.1368H71.7859V23.116H67.9265ZM74.1016 23.116V29.2403H75.2594V27.0713C76.803 27.0894 76.2777 28.421 77.2712 29.1091C77.6126 29.3456 78.2095 29.2403 78.6043 29.2403L77.4465 26.8161C78.7451 26.1971 78.7906 24.1372 77.5696 23.3724C76.6877 22.82 75.1075 23.116 74.1016 23.116ZM82.3351 23.116L80.4054 29.2403C81.6539 29.2393 81.3332 28.5495 82.225 28.169C82.7836 27.9306 83.6645 28.092 84.2649 28.092L84.5221 29.2403H85.8086L84.3506 24.9023L83.6599 23.2472L82.3351 23.116ZM94.0422 29.2403H95.3286L95.5859 28.092H97.9016L98.1589 29.2403H99.4454C99.0826 27.685 98.4535 26.1614 97.9445 24.6471C97.7651 24.1133 97.662 23.2421 96.9941 23.135C96.0134 22.9779 95.8392 23.7667 95.5859 24.5195C95.0625 26.0755 94.415 27.6421 94.0422 29.2403ZM32.934 26.0506V24.1368C33.7544 24.1368 35.9298 24.9724 34.3306 25.9001C33.9347 26.1299 33.3742 26.0505 32.934 26.0506ZM51.5881 26.0506V24.1368C52.048 24.1368 52.6888 24.0325 53.0961 24.2872C54.6487 25.2581 52.3654 26.0505 51.5881 26.0506ZM75.2594 26.0506V24.1368C75.7314 24.1368 76.3609 24.0386 76.7842 24.2872C77.3326 24.6092 77.3109 25.5745 76.7738 25.9001C76.3589 26.1518 75.725 26.0506 75.2594 26.0506ZM103.948 24.2172C106.102 24.2838 106.003 28.4096 103.819 28.2638C101.705 28.1225 101.79 24.1504 103.948 24.2172ZM83.107 24.6471L83.8789 26.9437H82.3351L83.107 24.6471ZM96.7438 24.6471L97.5157 26.9437H95.9719L96.7438 24.6471Z" fill="#FAFAFA"/>
<path d="M7.75962 35.9099C7.43634 35.7145 7.38819 35.2268 7.5892 34.1838C7.75634 33.3166 7.75489 33.327 7.7095 33.327C7.68735 33.327 7.43592 33.4429 7.15076 33.5845C6.41865 33.9482 5.69399 34.1566 5.43953 34.0765C5.07967 33.9632 5.60746 33.4062 6.6615 32.7868C7.94113 32.0348 8.09681 31.8076 8.32437 30.3595C8.39067 29.9376 8.46205 29.5424 8.48299 29.4814C8.51168 29.3977 8.50797 29.3703 8.46797 29.3703C8.38271 29.3703 7.27053 29.8301 6.85258 30.0382C5.79007 30.5671 5.4916 30.8941 5.16453 31.8879C4.95402 32.5276 4.84865 32.734 4.63966 32.916C4.49733 33.0399 4.16309 33.1655 3.97555 33.1655C3.89082 33.1655 3.88086 33.1508 3.90012 33.0545C3.95782 32.7656 4.13445 31.5428 4.12047 31.5289C4.11172 31.5203 3.73909 31.6566 3.29228 31.8318C2.40386 32.1802 1.90091 32.327 1.57874 32.3319C1.333 32.3356 1.23828 32.2736 1.23828 32.1088C1.23828 31.76 1.56474 31.4902 2.5992 30.984C3.04857 30.7641 3.45885 30.5477 3.51094 30.5032C3.60834 30.42 3.59998 30.3393 3.49395 30.3393C3.36701 30.3393 2.77484 30.084 2.53816 29.9273C2.23604 29.7272 2.12983 29.5489 2.21677 29.3878C2.28639 29.2588 2.53891 29.1086 2.79118 29.0463C3.0532 28.9815 3.34909 29.0481 3.89459 29.2946C4.33918 29.4956 4.71057 29.6126 4.90418 29.6126C5.10609 29.6126 5.63047 29.4555 5.96848 29.2937C6.15446 29.2047 6.59973 28.9564 6.95798 28.7419C7.31622 28.5275 7.72384 28.2978 7.86379 28.2316C8.00374 28.1653 8.10863 28.0957 8.09688 28.0768C8.06121 28.0196 7.12121 27.4405 6.82318 27.2921C6.13983 26.952 5.77927 26.9951 4.88594 27.5235C4.28992 27.876 3.97283 28.0064 3.69557 28.0128C3.34661 28.021 3.11445 27.7847 3.17154 27.4794C3.22079 27.2161 3.51208 26.9886 4.25152 26.636C4.60936 26.4654 4.90209 26.3159 4.90202 26.3038C4.90196 26.2916 4.6409 26.2151 4.32191 26.1337C3.34315 25.8841 3.02879 25.7288 2.86777 25.4158C2.53127 24.7617 3.13556 24.6513 4.61717 25.0964C4.91944 25.1872 5.19423 25.2694 5.22782 25.279C5.27911 25.2937 5.289 25.2332 5.28964 24.9009C5.29054 24.4424 5.34915 24.2094 5.50806 24.033C5.64882 23.8768 5.82085 23.8708 6.03989 24.0146C6.26492 24.1623 6.32884 24.3368 6.38934 24.9686C6.41844 25.2725 6.46993 25.5868 6.50376 25.6671C6.59072 25.8735 6.88607 26.139 7.26459 26.351C7.59634 26.5369 8.95579 27.0996 8.99028 27.0654C9.00078 27.055 9.0296 26.9198 9.05433 26.765C9.07905 26.6102 9.19895 26.1111 9.32078 25.6559C9.56933 24.7272 9.64351 24.2872 9.60258 23.9846C9.52864 23.438 9.33536 23.2379 8.31757 22.6544C7.90497 22.4179 7.57364 22.1341 7.50687 21.9599C7.36653 21.5938 7.59084 21.2955 8.0065 21.2955C8.2952 21.2955 8.6311 21.4354 9.31701 21.8412C9.67296 22.0518 9.98526 22.2241 10.011 22.2241C10.0392 22.2241 10.0941 22.0152 10.1491 21.6988C10.3442 20.5767 10.5827 19.8311 10.8352 19.554C10.9134 19.4682 11.0131 19.3979 11.0567 19.3979C11.4992 19.3979 11.5311 20.0619 11.1707 21.7704C11.1039 22.0871 11.0493 22.3805 11.0493 22.4224C11.0493 22.4869 11.1375 22.4543 11.63 22.208C12.8635 21.5912 13.5955 21.4867 13.6767 21.916C13.7482 22.2937 13.4232 22.5553 12.2909 23.0316C11.707 23.2772 11.4569 23.4091 11.284 23.5627C10.9446 23.8641 10.6703 24.5257 10.5202 25.4048C10.3974 26.1241 10.2747 27.041 10.2982 27.0643C10.3097 27.0757 10.5612 26.9876 10.8572 26.8685C12.0196 26.4009 12.7343 26.0073 13.1255 25.6193C13.3416 25.4051 13.4894 25.1416 13.7069 24.583C13.9822 23.8759 14.1525 23.6025 14.4114 23.4516C14.6189 23.3306 14.8069 23.3265 14.9217 23.4403C15.054 23.5716 15.013 23.9773 14.8069 24.5759C14.7171 24.8368 14.655 25.0503 14.6689 25.0503C14.6827 25.0503 14.9228 24.9227 15.2023 24.7667C15.9396 24.3553 16.3792 24.1372 16.6608 24.0431C17.3221 23.8221 17.7082 24.0851 17.4338 24.5694C17.2732 24.8527 16.7763 25.1419 15.7716 25.5367C15.0498 25.8204 15.0297 25.8529 15.4334 26.0835C15.7645 26.2726 16.1622 26.6423 16.2006 26.7968C16.2347 26.9337 16.146 27.0811 15.9628 27.1919C15.7082 27.3458 15.4402 27.2814 14.8054 26.9138C14.6539 26.826 14.4323 26.7226 14.313 26.6839C14.1081 26.6174 14.0767 26.6173 13.7463 26.6817C13.3337 26.7621 12.8394 26.9571 12.3316 27.2398C11.8972 27.4816 10.807 28.1694 10.8058 28.2023C10.8039 28.2566 12.3713 29.2663 12.5989 29.3575C13.1457 29.5765 13.5157 29.5278 14.3411 29.1281C15.1402 28.741 15.477 28.6457 15.7695 28.7238C15.8586 28.7476 15.9596 28.8069 15.994 28.8556C16.0742 28.9691 16.074 29.1794 15.9935 29.3337C15.8737 29.5634 15.3326 29.8329 14.6215 30.017C14.4256 30.0678 14.2653 30.1218 14.2653 30.1371C14.2653 30.1525 14.4439 30.2888 14.6622 30.4402C15.495 31.0175 15.8123 31.3361 15.8123 31.5949C15.8123 31.7378 15.6431 31.8735 15.465 31.8735C15.2401 31.8735 14.8235 31.7225 14.2372 31.4284C13.9284 31.2735 13.6647 31.1468 13.6512 31.1468C13.6377 31.1468 13.5865 31.2924 13.5373 31.4704C13.4266 31.8709 13.2122 32.3806 13.0471 32.6358C12.7772 33.053 12.5232 33.0052 12.3245 32.4997C12.2536 32.3195 12.2611 32.0895 12.3519 31.6515C12.4524 31.1672 12.4539 30.8925 12.3572 30.6825C12.2167 30.3773 11.7225 30.0073 10.9298 29.6135C10.5902 29.4448 9.79961 29.0877 9.76575 29.0877C9.76166 29.0877 9.74719 29.2057 9.73361 29.3499C9.72003 29.4941 9.63578 29.9259 9.54639 30.3094C9.255 31.5594 9.22763 32.0424 9.42645 32.426C9.52988 32.6255 9.70342 32.7579 10.422 33.1857C10.7552 33.384 10.9271 33.5997 10.9271 33.8195C10.9271 34.2875 10.4891 34.4761 9.95995 34.2358C9.83481 34.179 9.5753 34.0441 9.38326 33.9361C8.84282 33.6321 8.87985 33.6224 8.79886 34.088C8.65449 34.918 8.37759 35.6569 8.13022 35.8723C7.96802 36.0136 7.93636 36.0168 7.75962 35.9099Z" fill="#FAFAFA"/>
</g>
<defs>
<clipPath id="clip0_9218_972">
<rect width="119" height="36" fill="white"/>
</clipPath>
</defs>
</svg>
