<?xml version="1.0" encoding="UTF-8" standalone="no"?>
<!-- Created with Inkscape (http://www.inkscape.org/) -->

<svg
   version="1.1"
   id="svg1"
   width="477.23322"
   height="511.87949"
   viewBox="0 0 477.23322 511.87949"
   xmlns="http://www.w3.org/2000/svg"
   xmlns:svg="http://www.w3.org/2000/svg">
  <defs
     id="defs1" />
  <g
     id="g1"
     transform="translate(-595.85125,20.191431)">
    <path
       style="fill:#fafafa;fill-opacity:1"
       d="m 794.95241,490.32062 c -1.65,-0.74191 -5.30425,-3.34321 -8.12057,-5.78067 -13.3969,-11.59474 -25.36925,-18.04561 -43.09562,-23.2205 -6.4811,-1.89204 -13.02131,-3.70324 -14.53381,-4.02489 l -2.75,-0.58482 v -68.82889 -68.82889 l 16.25,-15.08069 c 21.44423,-19.90115 32.06687,-28.67062 38.71949,-31.96467 10.62482,-5.26091 25.05148,-21.15099 32.99171,-36.33837 7.64286,-14.6186 10.07304,-24.06136 11.67725,-45.37345 0.78854,-10.47582 1.64597,-20.0392 1.9054,-21.25197 0.71618,-3.348 6.81485,-7.46836 11.90302,-8.04187 10.28332,-1.15908 15.25924,3.0008 19.52732,16.32485 4.37539,13.65908 6.08259,25.01106 6.07899,40.42205 -0.005,20.60021 -3.5083,36.82154 -12.09488,56 -4.11005,9.17997 -4.26871,12.50355 -0.749,15.69016 1.87409,1.69672 6.10658,1.84109 67.71902,2.30984 l 65.71999,0.5 4.0547,2.68402 c 11.62038,7.69214 10.51338,25.66009 -1.95275,31.69483 -3.97472,1.92413 -6.07786,2.12115 -22.64291,2.12115 h -18.2612 l -2.92307,2.92308 c -3.11994,3.11993 -3.63536,5.87104 -1.75974,9.39266 2.08486,3.91446 4.02724,4.61929 12.83666,4.65803 13.84167,0.0609 20.29654,2.76684 24.02264,10.07061 2.10495,4.12603 2.5895,11.21537 1.04435,15.27943 -1.46608,3.85608 -6.99469,9.59866 -11.40923,11.85079 -3.66997,1.87228 -4.64331,1.95574 -10.85144,0.93049 -5.53277,-0.91372 -7.45358,-0.86149 -10.17776,0.27675 -4.45209,1.8602 -6.16839,6.39039 -4.20308,11.09405 1.42848,3.41883 3.85859,4.64749 11.8459,5.98923 4.17793,0.70182 10.03841,5.29949 12.2797,9.63366 1.92635,3.72515 1.83849,11.27801 -0.18069,15.53311 -2.03953,4.29798 -8.24272,9.68646 -12.73994,11.06669 -1.88072,0.57721 -6.63474,0.81942 -10.56448,0.53825 -6.4699,-0.46292 -7.37747,-0.29282 -9.60548,1.80029 -1.75762,1.65119 -2.46049,3.37272 -2.46049,6.02641 0,5.43628 2.44249,7.75779 9.5,9.02946 9.2127,1.66 14.75535,6.64664 16.62203,14.95461 1.80357,8.02712 -2.64603,16.46854 -10.58066,20.07274 -3.80384,1.72784 -8.33196,1.83473 -77.04137,1.81856 -59.07758,-0.0139 -73.57215,-0.27445 -76,-1.36612 z m -177.5,-105.07278 v -90.5 h 45.5 45.5 v 90.5 90.5 h -45.5 -45.5 z m 59.92742,-56.13486 c 3.22578,-4.10092 2.79521,-9.5793 -1.00415,-12.77625 -4.03189,-3.39261 -7.37495,-3.29105 -11.00019,0.33419 -6.02138,6.02137 -2.44233,15.07692 5.95888,15.07692 3.1009,0 4.42778,-0.57831 6.04546,-2.63486 z M 624.76778,181.74086 c -2.60017,-1.04763 -4.31537,-3.94311 -4.31537,-7.28489 0,-1.86818 5.28939,-27.04193 8.40662,-40.00954 0.317,-1.31872 -3.94009,-5.68271 -15.88756,-16.28653 -9.65088,-8.56552 -16.56614,-15.4635 -16.92146,-16.87919 -0.71019,-2.829653 0.54067,-6.572813 2.8319,-8.474363 1.06962,-0.88771 8.82504,-2.01134 22.35417,-3.23876 11.39398,-1.03371 21.20807,-2.04976 21.8091,-2.25789 0.60102,-0.20813 4.8592,-9.041307 9.46263,-19.629283 4.60343,-10.587975 9.25904,-20.07925 10.3458,-21.091721 2.70109,-2.516456 7.20283,-2.330883 9.92525,0.409144 1.22954,1.2375 5.78177,10.575 10.11605,20.75 4.33429,10.175 8.14534,18.78903 8.46901,19.14228 0.32367,0.35325 9.36349,1.39906 20.08849,2.32402 21.16549,1.82538 25.4909,2.71393 27.00768,5.54804 1.37413,2.5676 1.24165,7.288473 -0.25768,9.182243 -0.6875,0.86836 -7.55,7.08296 -15.25,13.81023 -7.7,6.72727 -14.61968,12.81355 -15.37706,13.52507 -1.16416,1.09366 -0.64725,4.57668 3.3434,22.52819 5.10123,22.94733 5.1052,24.20889 0.0865,27.49728 -1.53171,1.00361 -3.4799,1.42678 -4.91288,1.06713 -1.30604,-0.3278 -10.39984,-5.35839 -20.20843,-11.1791 -14.74766,-8.7517 -18.18836,-10.41661 -19.88266,-9.62095 -1.12687,0.52919 -9.68702,5.51018 -19.02255,11.06887 -9.33554,5.55868 -17.66054,10.07818 -18.5,10.04331 -0.83947,-0.0349 -2.50938,-0.45948 -3.71093,-0.94359 z m 331.72469,-1.79911 c -1.67203,-1.67204 -3.04006,-3.66647 -3.04006,-4.43208 0,-0.76562 2.025,-10.45983 4.5,-21.54271 2.475,-11.08288 4.5,-20.54059 4.5,-21.01713 0,-0.47654 -6.1875,-6.28465 -13.75,-12.90691 -20.03449,-17.5436 -19.25,-16.69809 -19.25,-20.747333 0,-4.32253 2.62871,-7.23376 7.19422,-7.96744 1.81818,-0.29218 11.72395,-1.28493 22.01284,-2.20611 l 18.70705,-1.67487 3.96651,-9.099666 c 2.18158,-5.004815 6.07937,-13.949094 8.66175,-19.876176 2.58238,-5.927081 5.64191,-11.439581 6.79894,-12.25 2.8698,-2.010086 6.87628,-1.851097 9.25748,0.367368 1.0868,1.012471 5.7424,10.503746 10.3458,21.091721 4.6035,10.587976 8.8617,19.408323 9.4627,19.600773 0.601,0.19245 10.418,1.21089 21.8155,2.26319 21.4568,1.98106 23.1639,2.46003 24.8831,6.98176 1.7435,4.585773 -0.1362,7.035063 -16.6281,21.666523 -11.8894,10.54823 -16.1955,14.9579 -15.8818,16.26367 3.3301,13.85969 8.404,38.20498 8.404,40.32311 0,3.61977 -2.776,6.82912 -6.5,7.51457 -2.5144,0.46281 -5.7515,-1.09162 -20,-9.60369 -9.35,-5.58574 -17.9159,-10.58613 -19.0355,-11.11198 -1.677,-0.7877 -5.18922,0.91539 -19.94193,9.67009 -9.8485,5.84439 -19.15199,10.8753 -20.6744,11.17978 -2.17492,0.43498 -3.41943,-0.0978 -5.8081,-2.48646 z M 774.45241,160.74784 c -1.18697,-1.18697 -2,-3.33333 -2,-5.27989 0,-1.80394 2.69321,-15.19144 5.9849,-29.75 3.2917,-14.55856 5.9917,-27.225083 6,-28.147823 0.009,-0.94564 -9.8193,-10.31717 -22.52287,-21.477198 -13.0495,-11.463915 -22.77813,-20.75634 -23.10841,-22.072292 -0.84675,-3.373716 0.38647,-7.057855 2.91226,-8.70015 1.52849,-0.993839 11.55151,-2.302272 31.73412,-4.142659 16.225,-1.479505 29.81041,-2.969006 30.18981,-3.31 0.37939,-0.340995 5.91346,-12.769991 12.29793,-27.619991 6.38448,-14.8500002 12.53642,-27.7875 13.67098,-28.75 2.49221,-2.114248 6.75351,-2.265101 9.40015,-0.332772 1.07457,0.784549 7.31647,13.8423438 13.98211,29.250001 l 12.04098,27.832771 29.95902,2.805327 c 20.47303,1.917069 30.66642,3.266762 32.19314,4.26265 2.53453,1.653274 3.75823,5.334209 2.90435,8.736346 -0.34018,1.35538 -9.85646,10.46214 -23.10841,22.113975 -12.39153,10.895312 -22.53006,20.465272 -22.53006,21.266582 0,0.80131 2.7,13.506423 6,28.233593 3.3,14.72716 6,28.19525 6,29.92909 0,1.81911 -0.84591,3.99835 -2,5.15244 -4.0814,4.0814 -7.02795,2.95258 -33.93366,-13 -13.9145,-8.25 -25.60042,-15 -25.96871,-15 -0.36828,0 -12.09726,6.75 -26.06438,15 -27.00331,15.95012 -29.95547,17.07778 -34.03325,13 z"
       id="path1" />
  </g>
</svg>
